<svg xmlns="http://www.w3.org/2000/svg" viewBox="0 0 64 64" fill="none">
  <!-- REVOL logo - starburst/explosion graphic -->
  
  <!-- Central irregular star core -->
  <path d="M32 22 L36 26 L40 30 L38 34 L32 36 L26 34 L24 30 L28 26 Z" fill="#000000"/>
  
  <!-- Asymmetric radiating segments - varying lengths for irregular effect -->
  <!-- Long top segment -->
  <path d="M32 6 L33.5 14 L35 22 L33 20 L31 18 L32 16 Z" fill="#000000"/>
  <path d="M32 16 L33 24 L35 28 L32 26 L30 24 Z" fill="#000000"/>
  
  <!-- Medium top-right -->
  <path d="M46 10 L44 16 L42 22 L40 26 L44 24 L48 20 L50 16 Z" fill="#000000"/>
  
  <!-- Long right segment -->
  <path d="M58 32 L50 33 L42 34 L44 32 L46 30 L48 32 Z" fill="#000000"/>
  <path d="M48 32 L46 34 L44 36 L48 34 L52 33 Z" fill="#000000"/>
  
  <!-- Medium bottom-right -->
  <path d="M46 54 L44 48 L42 42 L40 38 L44 40 L48 44 L50 48 Z" fill="#000000"/>
  
  <!-- Long bottom segment -->
  <path d="M32 38 L33 46 L35 54 L33 52 L31 50 L32 48 Z" fill="#000000"/>
  <path d="M32 48 L33 50 L35 52 L32 50 L30 48 Z" fill="#000000"/>
  
  <!-- Medium bottom-left -->
  <path d="M18 54 L20 48 L22 42 L24 38 L20 40 L16 44 L14 48 Z" fill="#000000"/>
  
  <!-- Long left segment -->
  <path d="M6 32 L14 31 L22 30 L20 32 L18 34 L16 32 Z" fill="#000000"/>
  <path d="M16 32 L18 30 L20 28 L16 30 L12 31 Z" fill="#000000"/>
  
  <!-- Medium top-left -->
  <path d="M18 10 L20 16 L22 22 L24 26 L20 24 L16 20 L14 16 Z" fill="#000000"/>
  
  <!-- Additional sharp irregular fragments -->
  <path d="M28 4 L30 10 L28 12 L26 10 Z" fill="#000000"/>
  <path d="M36 4 L34 10 L36 12 L38 10 Z" fill="#000000"/>
  <path d="M28 60 L30 54 L28 52 L26 54 Z" fill="#000000"/>
  <path d="M36 60 L34 54 L36 52 L38 54 Z" fill="#000000"/>
  <path d="M4 28 L10 26 L12 28 L10 30 Z" fill="#000000"/>
  <path d="M4 36 L10 38 L12 36 L10 34 Z" fill="#000000"/>
  <path d="M60 28 L54 30 L52 28 L54 26 Z" fill="#000000"/>
  <path d="M60 36 L54 34 L52 36 L54 38 Z" fill="#000000"/>
</svg>
